<svg width="300" height="400" viewBox="0 0 300 400" xmlns="http://www.w3.org/2000/svg">
  <defs>
    <linearGradient id="teamGradient" x1="0%" y1="0%" x2="100%" y2="100%">
      <stop offset="0%" style="stop-color:#1D1D1F;stop-opacity:1" />
      <stop offset="100%" style="stop-color:#2D2D30;stop-opacity:1" />
    </linearGradient>
  </defs>
  
  <!-- Background -->
  <rect width="300" height="400" fill="url(#teamGradient)"/>
  
  <!-- Person - AI Engineer -->
  <g transform="translate(150, 200)">
    <!-- Head -->
    <circle cx="0" cy="0" r="35" fill="#E0E0E0"/>
    
    <!-- Hair -->
    <path d="M-25,-20 Q-30,-35 -20,-40 Q-10,-45 0,-40 Q10,-45 20,-40 Q30,-35 25,-20" fill="#2C1810"/>
    
    <!-- Eyes -->
    <circle cx="-12" cy="-5" r="4" fill="#2C1810"/>
    <circle cx="12" cy="-5" r="4" fill="#2C1810"/>
    <circle cx="-12" cy="-5" r="2" fill="white"/>
    <circle cx="12" cy="-5" r="2" fill="white"/>
    
    <!-- Nose -->
    <ellipse cx="0" cy="0" rx="3" ry="2" fill="#D0C0B0"/>
    
    <!-- Mouth -->
    <path d="M-8,8 Q0,12 8,8" stroke="#2C1810" stroke-width="2" fill="none"/>
    
    <!-- Body -->
    <rect x="-25" y="35" width="50" height="80" rx="25" fill="#FF2D92"/>
    
    <!-- Arms -->
    <rect x="-40" y="45" width="15" height="50" rx="7" fill="#FF2D92"/>
    <rect x="25" y="45" width="15" height="50" rx="7" fill="#FF2D92"/>
    
    <!-- Hands -->
    <circle cx="-40" cy="100" r="8" fill="#E0E0E0"/>
    <circle cx="40" cy="100" r="8" fill="#E0E0E0"/>
    
    <!-- Legs -->
    <rect x="-18" y="115" width="14" height="50" rx="7" fill="#007AFF"/>
    <rect x="4" y="115" width="14" height="50" rx="7" fill="#007AFF"/>
    
    <!-- Feet -->
    <ellipse cx="-11" cy="170" rx="10" ry="6" fill="#333"/>
    <ellipse cx="11" cy="170" rx="10" ry="6" fill="#333"/>
  </g>
  
  <!-- AI Neural Network Elements -->
  <g transform="translate(150, 80)">
    <!-- Neural Network -->
    <circle cx="0" cy="0" r="25" fill="rgba(255,0,0,0.1)" stroke="#FF0000" stroke-width="2">
      <animate attributeName="stroke-width" values="2;4;2" dur="2s" repeatCount="indefinite"/>
    </circle>
    
    <!-- Neural Connections -->
    <line x1="-15" y1="-15" x2="15" y2="15" stroke="#FF0000" stroke-width="2">
      <animate attributeName="stroke-width" values="2;4;2" dur="2s" repeatCount="indefinite"/>
    </line>
    <line x1="15" y1="-15" x2="-15" y2="15" stroke="#FF0000" stroke-width="2">
      <animate attributeName="stroke-width" values="2;4;2" dur="2s" repeatCount="indefinite" begin="1s"/>
    </line>
    <line x1="-15" y1="0" x2="15" y2="0" stroke="#FF0000" stroke-width="2">
      <animate attributeName="stroke-width" values="2;4;2" dur="2s" repeatCount="indefinite" begin="0.5s"/>
    </line>
    
    <!-- Neural Nodes -->
    <circle cx="-10" cy="-10" r="4" fill="#FF0000">
      <animate attributeName="r" values="4;6;4" dur="1.5s" repeatCount="indefinite"/>
    </circle>
    <circle cx="10" cy="10" r="4" fill="#FF0000">
      <animate attributeName="r" values="4;6;4" dur="1.5s" repeatCount="indefinite" begin="0.5s"/>
    </circle>
    <circle cx="10" cy="-10" r="4" fill="#FF0000">
      <animate attributeName="r" values="4;6;4" dur="1.5s" repeatCount="indefinite" begin="1s"/>
    </circle>
    <circle cx="-10" cy="10" r="4" fill="#FF0000">
      <animate attributeName="r" values="4;6;4" dur="1.5s" repeatCount="indefinite" begin="1.5s"/>
    </circle>
    <circle cx="0" cy="0" r="4" fill="#FF0000">
      <animate attributeName="r" values="4;6;4" dur="1.5s" repeatCount="indefinite" begin="0.75s"/>
    </circle>
  </g>
  
  <!-- AI Development Elements -->
  <g opacity="0.6">
    <!-- AI Lines -->
    <line x1="50" y1="120" x2="80" y2="100" stroke="#FF2D92" stroke-width="2" stroke-dasharray="5,5"/>
    <line x1="250" y1="120" x2="220" y2="100" stroke="#007AFF" stroke-width="2" stroke-dasharray="5,5"/>
    <line x1="50" y1="140" x2="80" y2="160" stroke="#FF2D92" stroke-width="2" stroke-dasharray="5,5"/>
    <line x1="250" y1="140" x2="220" y2="160" stroke="#007AFF" stroke-width="2" stroke-dasharray="5,5"/>
    
    <!-- AI Points -->
    <circle cx="80" cy="100" r="4" fill="#FF2D92"/>
    <circle cx="220" cy="100" r="4" fill="#007AFF"/>
    <circle cx="80" cy="160" r="4" fill="#FF2D92"/>
    <circle cx="220" cy="160" r="4" fill="#007AFF"/>
  </g>
  
  <!-- Floating AI Elements -->
  <g opacity="0.7">
    <rect x="20" y="320" width="50" height="25" rx="3" fill="rgba(255,45,146,0.3)" stroke="#FF2D92" stroke-width="1"/>
    <text x="45" y="337" text-anchor="middle" fill="white" font-size="8" font-family="Arial">AI</text>
    
    <rect x="80" y="320" width="50" height="25" rx="3" fill="rgba(0,122,255,0.3)" stroke="#007AFF" stroke-width="1"/>
    <text x="105" y="337" text-anchor="middle" fill="white" font-size="8" font-family="Arial">ENGINEER</text>
    
    <rect x="140" y="320" width="50" height="25" rx="3" fill="rgba(255,0,0,0.3)" stroke="#FF0000" stroke-width="1"/>
    <text x="165" y="337" text-anchor="middle" fill="white" font-size="8" font-family="Arial">NEURAL</text>
    
    <rect x="200" y="320" width="50" height="25" rx="3" fill="rgba(255,45,146,0.3)" stroke="#FF2D92" stroke-width="1"/>
    <text x="225" y="337" text-anchor="middle" fill="white" font-size="8" font-family="Arial">NET</text>
  </g>
</svg> 