<?xml version="1.0" encoding="UTF-8"?>
<svg width="1200" height="800" viewBox="0 0 1200 800" fill="none" xmlns="http://www.w3.org/2000/svg">
  <defs>
    <linearGradient id="bg-gradient" x1="0%" y1="0%" x2="100%" y2="100%">
      <stop offset="0%" style="stop-color:#0A0A0A;stop-opacity:1" />
      <stop offset="30%" style="stop-color:#1a1a1a;stop-opacity:1" />
      <stop offset="70%" style="stop-color:#0A0A0A;stop-opacity:1" />
      <stop offset="100%" style="stop-color:#000000;stop-opacity:1" />
    </linearGradient>
    <linearGradient id="accent-gradient" x1="0%" y1="0%" x2="100%" y2="100%">
      <stop offset="0%" style="stop-color:#14b8a6;stop-opacity:0.3" />
      <stop offset="50%" style="stop-color:#2dd4bf;stop-opacity:0.2" />
      <stop offset="100%" style="stop-color:#14b8a6;stop-opacity:0.3" />
    </linearGradient>
    <linearGradient id="tech-gradient" x1="0%" y1="0%" x2="100%" y2="100%">
      <stop offset="0%" style="stop-color:#14b8a6;stop-opacity:0.4" />
      <stop offset="50%" style="stop-color:#2dd4bf;stop-opacity:0.3" />
      <stop offset="100%" style="stop-color:#5eead4;stop-opacity:0.2" />
    </linearGradient>
    <pattern id="grid" width="40" height="40" patternUnits="userSpaceOnUse">
      <path d="M 40 0 L 0 0 0 40" fill="none" stroke="#14b8a6" stroke-width="0.5" opacity="0.1"/>
    </pattern>
    <pattern id="dots" width="20" height="20" patternUnits="userSpaceOnUse">
      <circle cx="10" cy="10" r="1" fill="#14b8a6" opacity="0.2"/>
    </pattern>
    <filter id="glow">
      <feGaussianBlur stdDeviation="3" result="coloredBlur"/>
      <feMerge> 
        <feMergeNode in="coloredBlur"/>
        <feMergeNode in="SourceGraphic"/>
      </feMerge>
    </filter>
  </defs>
  
  <!-- Background -->
  <rect width="1200" height="800" fill="url(#bg-gradient)"/>
  
  <!-- Grid Pattern -->
  <rect width="1200" height="800" fill="url(#grid)"/>
  
  <!-- Dots Pattern -->
  <rect width="1200" height="800" fill="url(#dots)"/>
  
  <!-- Abstract Shapes -->
  <circle cx="150" cy="150" r="100" fill="url(#accent-gradient)" opacity="0.4"/>
  <circle cx="1050" cy="650" r="120" fill="url(#accent-gradient)" opacity="0.3"/>
  <rect x="500" y="100" width="200" height="200" rx="30" fill="url(#tech-gradient)" opacity="0.3" transform="rotate(45 600 200)"/>
  
  <!-- Tech Elements -->
  <g opacity="0.2">
    <!-- Code brackets -->
    <text x="100" y="200" font-family="monospace" font-size="24" fill="#14b8a6" transform="rotate(-15 100 200)">&lt;/&gt;</text>
    <text x="1100" y="600" font-family="monospace" font-size="20" fill="#2dd4bf" transform="rotate(15 1100 600)">{ }</text>
    
    <!-- Database icons -->
    <rect x="200" y="100" width="60" height="40" rx="5" fill="#14b8a6" opacity="0.6"/>
    <rect x="210" y="110" width="40" height="20" rx="3" fill="#2dd4bf" opacity="0.8"/>
    
    <!-- Server icons -->
    <rect x="900" y="500" width="80" height="50" rx="8" fill="#2dd4bf" opacity="0.5"/>
    <rect x="910" y="510" width="60" height="30" rx="4" fill="#14b8a6" opacity="0.7"/>
  </g>
  
  <!-- Connection Lines -->
  <path d="M 50 400 Q 300 300 550 400 T 1050 400" stroke="#14b8a6" stroke-width="2" fill="none" opacity="0.3"/>
  <path d="M 100 200 Q 400 400 700 200 T 1100 200" stroke="#2dd4bf" stroke-width="1.5" fill="none" opacity="0.4"/>
  <path d="M 200 600 Q 500 500 800 600 T 1150 600" stroke="#5eead4" stroke-width="1" fill="none" opacity="0.3"/>
  
  <!-- Floating Elements -->
  <circle cx="300" cy="500" r="20" fill="#14b8a6" opacity="0.6" filter="url(#glow)"/>
  <circle cx="900" cy="300" r="15" fill="#2dd4bf" opacity="0.7" filter="url(#glow)"/>
  <circle cx="600" cy="600" r="25" fill="#5eead4" opacity="0.5" filter="url(#glow)"/>
  <circle cx="150" cy="600" r="12" fill="#14b8a6" opacity="0.8" filter="url(#glow)"/>
  <circle cx="1050" cy="150" r="18" fill="#2dd4bf" opacity="0.6" filter="url(#glow)"/>
  
  <!-- Data Streams -->
  <g opacity="0.2">
    <path d="M 0 100 L 200 80 L 400 120 L 600 100 L 800 140 L 1000 100 L 1200 120" stroke="#14b8a6" stroke-width="3" fill="none"/>
    <path d="M 0 700 L 200 720 L 400 680 L 600 700 L 800 660 L 1000 700 L 1200 680" stroke="#2dd4bf" stroke-width="2" fill="none"/>
    <path d="M 0 400 L 200 420 L 400 380 L 600 400 L 800 360 L 1000 400 L 1200 380" stroke="#5eead4" stroke-width="1.5" fill="none"/>
  </g>
  
  <!-- Tech Icons -->
  <g opacity="0.15">
    <!-- React logo -->
    <circle cx="150" cy="300" r="30" fill="none" stroke="#14b8a6" stroke-width="2"/>
    <circle cx="150" cy="300" r="20" fill="none" stroke="#2dd4bf" stroke-width="1"/>
    <circle cx="150" cy="300" r="10" fill="#5eead4"/>
    
    <!-- Node.js logo -->
    <rect x="1000" y="200" width="40" height="40" rx="20" fill="#14b8a6" opacity="0.6"/>
    <rect x="1010" y="210" width="20" height="20" rx="10" fill="#2dd4bf" opacity="0.8"/>
    
    <!-- Database icon -->
    <ellipse cx="800" cy="600" rx="40" ry="20" fill="#14b8a6" opacity="0.4"/>
    <ellipse cx="800" cy="580" rx="40" ry="20" fill="#2dd4bf" opacity="0.6"/>
    <ellipse cx="800" cy="560" rx="40" ry="20" fill="#5eead4" opacity="0.8"/>
  </g>
  
  <!-- Circuit Patterns -->
  <g opacity="0.1">
    <path d="M 200 100 L 250 100 L 250 150 L 300 150" stroke="#14b8a6" stroke-width="2" fill="none"/>
    <path d="M 800 600 L 850 600 L 850 650 L 900 650" stroke="#2dd4bf" stroke-width="2" fill="none"/>
    <path d="M 400 300 L 450 300 L 450 350 L 500 350" stroke="#5eead4" stroke-width="2" fill="none"/>
  </g>
</svg>